<mxfile host="app.diagrams.net" agent="Mozilla/5.0 (Windows NT 10.0; Win64; x64) AppleWebKit/537.36 (KHTML, like Gecko) Chrome/140.0.0.0 Safari/537.36 Edg/140.0.0.0" version="28.2.3">
  <diagram name="Страница — 1" id="cj9dZFTRUv_mSYRUVJqb">
    <mxGraphModel dx="1018" dy="794" grid="0" gridSize="10" guides="1" tooltips="1" connect="1" arrows="1" fold="1" page="0" pageScale="1" pageWidth="827" pageHeight="1169" math="0" shadow="0">
      <root>
        <mxCell id="0" />
        <mxCell id="1" parent="0" />
        <mxCell id="ghC8SgLDVR53fzkr8RoE-6" value="Поставка товара&amp;nbsp;" style="ellipse;whiteSpace=wrap;html=1;" parent="1" vertex="1">
          <mxGeometry x="1270" y="490" width="140" height="70" as="geometry" />
        </mxCell>
        <mxCell id="ghC8SgLDVR53fzkr8RoE-7" value="" style="endArrow=classic;html=1;rounded=0;exitX=0.5;exitY=0.5;exitDx=0;exitDy=0;exitPerimeter=0;entryX=1;entryY=0.5;entryDx=0;entryDy=0;" parent="1" source="ghC8SgLDVR53fzkr8RoE-5" target="ghC8SgLDVR53fzkr8RoE-6" edge="1">
          <mxGeometry width="50" height="50" relative="1" as="geometry">
            <mxPoint x="290" y="800" as="sourcePoint" />
            <mxPoint x="1420" y="510" as="targetPoint" />
          </mxGeometry>
        </mxCell>
        <mxCell id="ghC8SgLDVR53fzkr8RoE-8" value="Согласование заявки на поставку материалов" style="ellipse;whiteSpace=wrap;html=1;" parent="1" vertex="1">
          <mxGeometry x="1310" y="410" width="140" height="70" as="geometry" />
        </mxCell>
        <mxCell id="ghC8SgLDVR53fzkr8RoE-9" value="" style="endArrow=classic;html=1;rounded=0;exitX=0.5;exitY=0.5;exitDx=0;exitDy=0;exitPerimeter=0;entryX=1;entryY=1;entryDx=0;entryDy=0;" parent="1" source="ghC8SgLDVR53fzkr8RoE-5" target="ghC8SgLDVR53fzkr8RoE-8" edge="1">
          <mxGeometry width="50" height="50" relative="1" as="geometry">
            <mxPoint x="330" y="790" as="sourcePoint" />
            <mxPoint x="1460" y="470" as="targetPoint" />
          </mxGeometry>
        </mxCell>
        <mxCell id="ghC8SgLDVR53fzkr8RoE-30" value="" style="endArrow=classic;html=1;rounded=0;entryX=1;entryY=0.5;entryDx=0;entryDy=0;exitX=0.5;exitY=0.5;exitDx=0;exitDy=0;exitPerimeter=0;" parent="1" source="ghC8SgLDVR53fzkr8RoE-5" target="ghC8SgLDVR53fzkr8RoE-53" edge="1">
          <mxGeometry width="50" height="50" relative="1" as="geometry">
            <mxPoint x="150" y="975" as="sourcePoint" />
            <mxPoint x="245" y="860" as="targetPoint" />
          </mxGeometry>
        </mxCell>
        <mxCell id="ghC8SgLDVR53fzkr8RoE-40" style="edgeStyle=none;curved=1;rounded=0;orthogonalLoop=1;jettySize=auto;html=1;exitX=0.5;exitY=0.5;exitDx=0;exitDy=0;exitPerimeter=0;entryX=0;entryY=0.5;entryDx=0;entryDy=0;fontSize=12;startSize=8;endSize=8;" parent="1" source="ghC8SgLDVR53fzkr8RoE-34" target="ghC8SgLDVR53fzkr8RoE-39" edge="1">
          <mxGeometry relative="1" as="geometry" />
        </mxCell>
        <mxCell id="ghC8SgLDVR53fzkr8RoE-34" value="Менеджер&amp;nbsp;" style="shape=umlActor;verticalLabelPosition=bottom;verticalAlign=top;html=1;gradientColor=none;" parent="1" vertex="1">
          <mxGeometry x="440" y="320" width="30" height="60" as="geometry" />
        </mxCell>
        <mxCell id="ghC8SgLDVR53fzkr8RoE-35" value="Создание заявки на поставку материалов" style="ellipse;whiteSpace=wrap;html=1;" parent="1" vertex="1">
          <mxGeometry x="660" y="210" width="140" height="70" as="geometry" />
        </mxCell>
        <mxCell id="ghC8SgLDVR53fzkr8RoE-36" value="" style="endArrow=classic;html=1;rounded=0;exitX=0.5;exitY=0.5;exitDx=0;exitDy=0;exitPerimeter=0;entryX=0;entryY=0.5;entryDx=0;entryDy=0;" parent="1" source="ghC8SgLDVR53fzkr8RoE-34" target="ghC8SgLDVR53fzkr8RoE-35" edge="1">
          <mxGeometry width="50" height="50" relative="1" as="geometry">
            <mxPoint x="480" y="320" as="sourcePoint" />
            <mxPoint x="530" y="270" as="targetPoint" />
          </mxGeometry>
        </mxCell>
        <mxCell id="ghC8SgLDVR53fzkr8RoE-37" value="Создание заявки на продажу товара" style="ellipse;whiteSpace=wrap;html=1;" parent="1" vertex="1">
          <mxGeometry x="660" y="300" width="140" height="70" as="geometry" />
        </mxCell>
        <mxCell id="ghC8SgLDVR53fzkr8RoE-38" value="" style="endArrow=classic;html=1;rounded=0;entryX=0;entryY=0.5;entryDx=0;entryDy=0;exitX=0.5;exitY=0.5;exitDx=0;exitDy=0;exitPerimeter=0;" parent="1" target="ghC8SgLDVR53fzkr8RoE-37" edge="1" source="ghC8SgLDVR53fzkr8RoE-34">
          <mxGeometry width="50" height="50" relative="1" as="geometry">
            <mxPoint x="445" y="290" as="sourcePoint" />
            <mxPoint x="520" y="310" as="targetPoint" />
          </mxGeometry>
        </mxCell>
        <mxCell id="ghC8SgLDVR53fzkr8RoE-39" value="Просмотр истории поступлений/продаж" style="ellipse;whiteSpace=wrap;html=1;" parent="1" vertex="1">
          <mxGeometry x="660" y="390" width="140" height="70" as="geometry" />
        </mxCell>
        <mxCell id="ghC8SgLDVR53fzkr8RoE-55" style="edgeStyle=none;curved=1;rounded=0;orthogonalLoop=1;jettySize=auto;html=1;exitX=0.5;exitY=0.5;exitDx=0;exitDy=0;exitPerimeter=0;entryX=1;entryY=0.5;entryDx=0;entryDy=0;fontSize=12;startSize=8;endSize=8;" parent="1" source="ghC8SgLDVR53fzkr8RoE-41" target="ghC8SgLDVR53fzkr8RoE-53" edge="1">
          <mxGeometry relative="1" as="geometry" />
        </mxCell>
        <mxCell id="ghC8SgLDVR53fzkr8RoE-42" value="Согласование заявки на покупку товара" style="ellipse;whiteSpace=wrap;html=1;" parent="1" vertex="1">
          <mxGeometry x="1270" y="240" width="140" height="70" as="geometry" />
        </mxCell>
        <mxCell id="ghC8SgLDVR53fzkr8RoE-43" value="" style="endArrow=classic;html=1;rounded=0;entryX=1;entryY=0.5;entryDx=0;entryDy=0;exitX=0.5;exitY=0.5;exitDx=0;exitDy=0;exitPerimeter=0;" parent="1" source="ghC8SgLDVR53fzkr8RoE-41" target="ghC8SgLDVR53fzkr8RoE-42" edge="1">
          <mxGeometry width="50" height="50" relative="1" as="geometry">
            <mxPoint x="1495" y="330" as="sourcePoint" />
            <mxPoint x="1410" y="375" as="targetPoint" />
          </mxGeometry>
        </mxCell>
        <mxCell id="ghC8SgLDVR53fzkr8RoE-44" value="Покупка товара" style="ellipse;whiteSpace=wrap;html=1;" parent="1" vertex="1">
          <mxGeometry x="1060" y="240" width="140" height="70" as="geometry" />
        </mxCell>
        <mxCell id="ghC8SgLDVR53fzkr8RoE-45" value="" style="endArrow=block;dashed=1;endFill=0;endSize=12;html=1;rounded=0;entryX=1;entryY=0.5;entryDx=0;entryDy=0;exitX=0;exitY=0.5;exitDx=0;exitDy=0;" parent="1" source="ghC8SgLDVR53fzkr8RoE-42" target="ghC8SgLDVR53fzkr8RoE-44" edge="1">
          <mxGeometry width="160" relative="1" as="geometry">
            <mxPoint x="1260" y="110" as="sourcePoint" />
            <mxPoint x="1330" y="250" as="targetPoint" />
          </mxGeometry>
        </mxCell>
        <mxCell id="ghC8SgLDVR53fzkr8RoE-46" value="Include" style="edgeLabel;html=1;align=center;verticalAlign=middle;resizable=0;points=[];fontSize=15;" parent="ghC8SgLDVR53fzkr8RoE-45" vertex="1" connectable="0">
          <mxGeometry x="0.1333" y="4" relative="1" as="geometry">
            <mxPoint x="8" y="-19" as="offset" />
          </mxGeometry>
        </mxCell>
        <mxCell id="ghC8SgLDVR53fzkr8RoE-50" value="" style="endArrow=block;dashed=1;endFill=0;endSize=12;html=1;rounded=0;exitX=0;exitY=0.5;exitDx=0;exitDy=0;entryX=1;entryY=0.5;entryDx=0;entryDy=0;" parent="1" source="ghC8SgLDVR53fzkr8RoE-44" target="ghC8SgLDVR53fzkr8RoE-52" edge="1">
          <mxGeometry width="160" relative="1" as="geometry">
            <mxPoint x="980" y="150" as="sourcePoint" />
            <mxPoint x="860" y="120" as="targetPoint" />
          </mxGeometry>
        </mxCell>
        <mxCell id="ghC8SgLDVR53fzkr8RoE-51" value="Include" style="edgeLabel;html=1;align=center;verticalAlign=middle;resizable=0;points=[];fontSize=15;" parent="ghC8SgLDVR53fzkr8RoE-50" vertex="1" connectable="0">
          <mxGeometry x="0.1333" y="4" relative="1" as="geometry">
            <mxPoint x="8" y="-14" as="offset" />
          </mxGeometry>
        </mxCell>
        <mxCell id="ghC8SgLDVR53fzkr8RoE-52" value="Оплата" style="ellipse;whiteSpace=wrap;html=1;" parent="1" vertex="1">
          <mxGeometry x="840" y="240" width="140" height="70" as="geometry" />
        </mxCell>
        <mxCell id="ghC8SgLDVR53fzkr8RoE-53" value="Авторизация" style="ellipse;whiteSpace=wrap;html=1;" parent="1" vertex="1">
          <mxGeometry x="860" y="520" width="140" height="70" as="geometry" />
        </mxCell>
        <mxCell id="ghC8SgLDVR53fzkr8RoE-54" style="edgeStyle=none;curved=1;rounded=0;orthogonalLoop=1;jettySize=auto;html=1;exitX=0.5;exitY=0.5;exitDx=0;exitDy=0;exitPerimeter=0;fontSize=12;startSize=8;endSize=8;entryX=0;entryY=0.5;entryDx=0;entryDy=0;" parent="1" source="ghC8SgLDVR53fzkr8RoE-34" target="ghC8SgLDVR53fzkr8RoE-53" edge="1">
          <mxGeometry relative="1" as="geometry">
            <mxPoint x="627" y="560" as="targetPoint" />
          </mxGeometry>
        </mxCell>
        <mxCell id="ghC8SgLDVR53fzkr8RoE-56" value="" style="endArrow=block;dashed=1;endFill=0;endSize=12;html=1;rounded=0;exitX=1;exitY=0.5;exitDx=0;exitDy=0;entryX=0;entryY=1;entryDx=0;entryDy=0;" parent="1" source="ghC8SgLDVR53fzkr8RoE-58" edge="1" target="ghC8SgLDVR53fzkr8RoE-42">
          <mxGeometry width="160" relative="1" as="geometry">
            <mxPoint x="960" y="380" as="sourcePoint" />
            <mxPoint x="1060" y="300" as="targetPoint" />
          </mxGeometry>
        </mxCell>
        <mxCell id="ghC8SgLDVR53fzkr8RoE-57" value="extend" style="edgeLabel;html=1;align=center;verticalAlign=middle;resizable=0;points=[];fontSize=15;" parent="ghC8SgLDVR53fzkr8RoE-56" vertex="1" connectable="0">
          <mxGeometry x="0.1333" y="4" relative="1" as="geometry">
            <mxPoint x="-8" y="10" as="offset" />
          </mxGeometry>
        </mxCell>
        <mxCell id="ghC8SgLDVR53fzkr8RoE-58" value="Отмена заявки" style="ellipse;whiteSpace=wrap;html=1;" parent="1" vertex="1">
          <mxGeometry x="1060" y="330" width="140" height="70" as="geometry" />
        </mxCell>
        <mxCell id="Ihu6XY7FOy_Qz9pvrFsJ-6" style="edgeStyle=none;rounded=0;orthogonalLoop=1;jettySize=auto;html=1;exitX=0.5;exitY=0.5;exitDx=0;exitDy=0;exitPerimeter=0;entryX=0;entryY=0.5;entryDx=0;entryDy=0;" edge="1" parent="1" source="Ihu6XY7FOy_Qz9pvrFsJ-1" target="ghC8SgLDVR53fzkr8RoE-53">
          <mxGeometry relative="1" as="geometry" />
        </mxCell>
        <mxCell id="Ihu6XY7FOy_Qz9pvrFsJ-7" style="edgeStyle=none;rounded=0;orthogonalLoop=1;jettySize=auto;html=1;exitX=0.5;exitY=0.5;exitDx=0;exitDy=0;exitPerimeter=0;entryX=0;entryY=0.5;entryDx=0;entryDy=0;" edge="1" parent="1" source="Ihu6XY7FOy_Qz9pvrFsJ-1" target="Ihu6XY7FOy_Qz9pvrFsJ-4">
          <mxGeometry relative="1" as="geometry" />
        </mxCell>
        <mxCell id="Ihu6XY7FOy_Qz9pvrFsJ-8" style="edgeStyle=none;rounded=0;orthogonalLoop=1;jettySize=auto;html=1;exitX=0.5;exitY=0.5;exitDx=0;exitDy=0;exitPerimeter=0;entryX=0;entryY=0.5;entryDx=0;entryDy=0;" edge="1" parent="1" source="Ihu6XY7FOy_Qz9pvrFsJ-1" target="Ihu6XY7FOy_Qz9pvrFsJ-2">
          <mxGeometry relative="1" as="geometry" />
        </mxCell>
        <mxCell id="Ihu6XY7FOy_Qz9pvrFsJ-9" style="edgeStyle=none;rounded=0;orthogonalLoop=1;jettySize=auto;html=1;exitX=0.5;exitY=0.5;exitDx=0;exitDy=0;exitPerimeter=0;entryX=0;entryY=0.5;entryDx=0;entryDy=0;" edge="1" parent="1" source="Ihu6XY7FOy_Qz9pvrFsJ-1" target="Ihu6XY7FOy_Qz9pvrFsJ-3">
          <mxGeometry relative="1" as="geometry" />
        </mxCell>
        <mxCell id="Ihu6XY7FOy_Qz9pvrFsJ-1" value="Администратор" style="shape=umlActor;verticalLabelPosition=bottom;verticalAlign=top;html=1;" vertex="1" parent="1">
          <mxGeometry x="440" y="530" width="30" height="60" as="geometry" />
        </mxCell>
        <mxCell id="Ihu6XY7FOy_Qz9pvrFsJ-2" value="Редактирование информации о поставщике/партнере" style="ellipse;whiteSpace=wrap;html=1;" vertex="1" parent="1">
          <mxGeometry x="660" y="660" width="140" height="70" as="geometry" />
        </mxCell>
        <mxCell id="Ihu6XY7FOy_Qz9pvrFsJ-3" value="Добавление/ удаление менеджера" style="ellipse;whiteSpace=wrap;html=1;" vertex="1" parent="1">
          <mxGeometry x="550" y="470" width="140" height="70" as="geometry" />
        </mxCell>
        <mxCell id="Ihu6XY7FOy_Qz9pvrFsJ-4" value="Редактирование информации о товаре" style="ellipse;whiteSpace=wrap;html=1;" vertex="1" parent="1">
          <mxGeometry x="660" y="570" width="140" height="70" as="geometry" />
        </mxCell>
        <mxCell id="Ihu6XY7FOy_Qz9pvrFsJ-11" value="" style="swimlane;startSize=0;" vertex="1" parent="1">
          <mxGeometry x="520" y="200" width="960" height="560" as="geometry" />
        </mxCell>
        <mxCell id="ghC8SgLDVR53fzkr8RoE-5" value="Поставщик" style="shape=umlActor;verticalLabelPosition=bottom;verticalAlign=top;html=1;" parent="Ihu6XY7FOy_Qz9pvrFsJ-11" vertex="1">
          <mxGeometry x="1000" y="340" width="30" height="60" as="geometry" />
        </mxCell>
        <mxCell id="ghC8SgLDVR53fzkr8RoE-41" value="Партнёр&lt;span style=&quot;background-color: transparent; color: light-dark(rgb(0, 0, 0), rgb(255, 255, 255));&quot;&gt;&amp;nbsp;&lt;/span&gt;" style="shape=umlActor;verticalLabelPosition=bottom;verticalAlign=top;html=1;" parent="Ihu6XY7FOy_Qz9pvrFsJ-11" vertex="1">
          <mxGeometry x="1000" y="100" width="30" height="60" as="geometry" />
        </mxCell>
      </root>
    </mxGraphModel>
  </diagram>
</mxfile>
